<?xml version="1.0" encoding="utf-8"?>
<svg xmlns="http://www.w3.org/2000/svg" xmlns:xlink="http://www.w3.org/1999/xlink" width="600" height="400" viewBox="0 0 2400 1600">
<defs>
  <clipPath id="clip140">
    <rect x="0" y="0" width="2400" height="1600"/>
  </clipPath>
</defs>
<path clip-path="url(#clip140)" d="M0 1600 L2400 1600 L2400 0 L0 0  Z" fill="#ffffff" fill-rule="evenodd" fill-opacity="1"/>
<defs>
  <clipPath id="clip141">
    <rect x="480" y="0" width="1681" height="1600"/>
  </clipPath>
</defs>
<path clip-path="url(#clip140)" d="M210.746 1423.18 L2352.76 1423.18 L2352.76 47.2441 L210.746 47.2441  Z" fill="#ffffff" fill-rule="evenodd" fill-opacity="1"/>
<defs>
  <clipPath id="clip142">
    <rect x="210" y="47" width="2143" height="1377"/>
  </clipPath>
</defs>
<polyline clip-path="url(#clip142)" style="stroke:#000000; stroke-linecap:round; stroke-linejoin:round; stroke-width:2; stroke-opacity:0.1; fill:none" points="271.369,1423.18 271.369,47.2441 "/>
<polyline clip-path="url(#clip142)" style="stroke:#000000; stroke-linecap:round; stroke-linejoin:round; stroke-width:2; stroke-opacity:0.1; fill:none" points="776.56,1423.18 776.56,47.2441 "/>
<polyline clip-path="url(#clip142)" style="stroke:#000000; stroke-linecap:round; stroke-linejoin:round; stroke-width:2; stroke-opacity:0.1; fill:none" points="1281.75,1423.18 1281.75,47.2441 "/>
<polyline clip-path="url(#clip142)" style="stroke:#000000; stroke-linecap:round; stroke-linejoin:round; stroke-width:2; stroke-opacity:0.1; fill:none" points="1786.94,1423.18 1786.94,47.2441 "/>
<polyline clip-path="url(#clip142)" style="stroke:#000000; stroke-linecap:round; stroke-linejoin:round; stroke-width:2; stroke-opacity:0.1; fill:none" points="2292.13,1423.18 2292.13,47.2441 "/>
<polyline clip-path="url(#clip140)" style="stroke:#000000; stroke-linecap:round; stroke-linejoin:round; stroke-width:4; stroke-opacity:1; fill:none" points="210.746,1423.18 2352.76,1423.18 "/>
<polyline clip-path="url(#clip140)" style="stroke:#000000; stroke-linecap:round; stroke-linejoin:round; stroke-width:4; stroke-opacity:1; fill:none" points="271.369,1423.18 271.369,1404.28 "/>
<polyline clip-path="url(#clip140)" style="stroke:#000000; stroke-linecap:round; stroke-linejoin:round; stroke-width:4; stroke-opacity:1; fill:none" points="776.56,1423.18 776.56,1404.28 "/>
<polyline clip-path="url(#clip140)" style="stroke:#000000; stroke-linecap:round; stroke-linejoin:round; stroke-width:4; stroke-opacity:1; fill:none" points="1281.75,1423.18 1281.75,1404.28 "/>
<polyline clip-path="url(#clip140)" style="stroke:#000000; stroke-linecap:round; stroke-linejoin:round; stroke-width:4; stroke-opacity:1; fill:none" points="1786.94,1423.18 1786.94,1404.28 "/>
<polyline clip-path="url(#clip140)" style="stroke:#000000; stroke-linecap:round; stroke-linejoin:round; stroke-width:4; stroke-opacity:1; fill:none" points="2292.13,1423.18 2292.13,1404.28 "/>
<path clip-path="url(#clip140)" d="M271.369 1454.1 Q267.758 1454.1 265.929 1457.66 Q264.124 1461.2 264.124 1468.33 Q264.124 1475.44 265.929 1479.01 Q267.758 1482.55 271.369 1482.55 Q275.003 1482.55 276.809 1479.01 Q278.637 1475.44 278.637 1468.33 Q278.637 1461.2 276.809 1457.66 Q275.003 1454.1 271.369 1454.1 M271.369 1450.39 Q277.179 1450.39 280.235 1455 Q283.313 1459.58 283.313 1468.33 Q283.313 1477.06 280.235 1481.67 Q277.179 1486.25 271.369 1486.25 Q265.559 1486.25 262.48 1481.67 Q259.424 1477.06 259.424 1468.33 Q259.424 1459.58 262.48 1455 Q265.559 1450.39 271.369 1450.39 Z" fill="#000000" fill-rule="nonzero" fill-opacity="1" /><path clip-path="url(#clip140)" d="M740.252 1481.64 L756.572 1481.64 L756.572 1485.58 L734.627 1485.58 L734.627 1481.64 Q737.289 1478.89 741.873 1474.26 Q746.479 1469.61 747.66 1468.27 Q749.905 1465.74 750.785 1464.01 Q751.687 1462.25 751.687 1460.56 Q751.687 1457.8 749.743 1456.07 Q747.822 1454.33 744.72 1454.33 Q742.521 1454.33 740.067 1455.09 Q737.636 1455.86 734.859 1457.41 L734.859 1452.69 Q737.683 1451.55 740.136 1450.97 Q742.59 1450.39 744.627 1450.39 Q749.998 1450.39 753.192 1453.08 Q756.386 1455.77 756.386 1460.26 Q756.386 1462.39 755.576 1464.31 Q754.789 1466.2 752.683 1468.8 Q752.104 1469.47 749.002 1472.69 Q745.9 1475.88 740.252 1481.64 Z" fill="#000000" fill-rule="nonzero" fill-opacity="1" /><path clip-path="url(#clip140)" d="M766.433 1451.02 L784.789 1451.02 L784.789 1454.96 L770.715 1454.96 L770.715 1463.43 Q771.734 1463.08 772.752 1462.92 Q773.771 1462.73 774.789 1462.73 Q780.576 1462.73 783.956 1465.9 Q787.335 1469.08 787.335 1474.49 Q787.335 1480.07 783.863 1483.17 Q780.391 1486.25 774.071 1486.25 Q771.896 1486.25 769.627 1485.88 Q767.382 1485.51 764.974 1484.77 L764.974 1480.07 Q767.058 1481.2 769.28 1481.76 Q771.502 1482.32 773.979 1482.32 Q777.983 1482.32 780.321 1480.21 Q782.659 1478.1 782.659 1474.49 Q782.659 1470.88 780.321 1468.77 Q777.983 1466.67 773.979 1466.67 Q772.104 1466.67 770.229 1467.08 Q768.377 1467.5 766.433 1468.38 L766.433 1451.02 Z" fill="#000000" fill-rule="nonzero" fill-opacity="1" /><path clip-path="url(#clip140)" d="M806.548 1454.1 Q802.937 1454.1 801.108 1457.66 Q799.303 1461.2 799.303 1468.33 Q799.303 1475.44 801.108 1479.01 Q802.937 1482.55 806.548 1482.55 Q810.182 1482.55 811.988 1479.01 Q813.817 1475.44 813.817 1468.33 Q813.817 1461.2 811.988 1457.66 Q810.182 1454.1 806.548 1454.1 M806.548 1450.39 Q812.358 1450.39 815.414 1455 Q818.493 1459.58 818.493 1468.33 Q818.493 1477.06 815.414 1481.67 Q812.358 1486.25 806.548 1486.25 Q800.738 1486.25 797.659 1481.67 Q794.604 1477.06 794.604 1468.33 Q794.604 1459.58 797.659 1455 Q800.738 1450.39 806.548 1450.39 Z" fill="#000000" fill-rule="nonzero" fill-opacity="1" /><path clip-path="url(#clip140)" d="M1241.37 1451.02 L1259.73 1451.02 L1259.73 1454.96 L1245.65 1454.96 L1245.65 1463.43 Q1246.67 1463.08 1247.69 1462.92 Q1248.71 1462.73 1249.73 1462.73 Q1255.51 1462.73 1258.89 1465.9 Q1262.27 1469.08 1262.27 1474.49 Q1262.27 1480.07 1258.8 1483.17 Q1255.33 1486.25 1249.01 1486.25 Q1246.83 1486.25 1244.56 1485.88 Q1242.32 1485.51 1239.91 1484.77 L1239.91 1480.07 Q1241.99 1481.2 1244.22 1481.76 Q1246.44 1482.32 1248.92 1482.32 Q1252.92 1482.32 1255.26 1480.21 Q1257.6 1478.1 1257.6 1474.49 Q1257.6 1470.88 1255.26 1468.77 Q1252.92 1466.67 1248.92 1466.67 Q1247.04 1466.67 1245.17 1467.08 Q1243.31 1467.5 1241.37 1468.38 L1241.37 1451.02 Z" fill="#000000" fill-rule="nonzero" fill-opacity="1" /><path clip-path="url(#clip140)" d="M1281.48 1454.1 Q1277.87 1454.1 1276.04 1457.66 Q1274.24 1461.2 1274.24 1468.33 Q1274.24 1475.44 1276.04 1479.01 Q1277.87 1482.55 1281.48 1482.55 Q1285.12 1482.55 1286.92 1479.01 Q1288.75 1475.44 1288.75 1468.33 Q1288.75 1461.2 1286.92 1457.66 Q1285.12 1454.1 1281.48 1454.1 M1281.48 1450.39 Q1287.29 1450.39 1290.35 1455 Q1293.43 1459.58 1293.43 1468.33 Q1293.43 1477.06 1290.35 1481.67 Q1287.29 1486.25 1281.48 1486.25 Q1275.67 1486.25 1272.6 1481.67 Q1269.54 1477.06 1269.54 1468.33 Q1269.54 1459.58 1272.6 1455 Q1275.67 1450.39 1281.48 1450.39 Z" fill="#000000" fill-rule="nonzero" fill-opacity="1" /><path clip-path="url(#clip140)" d="M1311.65 1454.1 Q1308.04 1454.1 1306.21 1457.66 Q1304.4 1461.2 1304.4 1468.33 Q1304.4 1475.44 1306.21 1479.01 Q1308.04 1482.55 1311.65 1482.55 Q1315.28 1482.55 1317.09 1479.01 Q1318.92 1475.44 1318.92 1468.33 Q1318.92 1461.2 1317.09 1457.66 Q1315.28 1454.1 1311.65 1454.1 M1311.65 1450.39 Q1317.46 1450.39 1320.51 1455 Q1323.59 1459.58 1323.59 1468.33 Q1323.59 1477.06 1320.51 1481.67 Q1317.46 1486.25 1311.65 1486.25 Q1305.84 1486.25 1302.76 1481.67 Q1299.7 1477.06 1299.7 1468.33 Q1299.7 1459.58 1302.76 1455 Q1305.84 1450.39 1311.65 1450.39 Z" fill="#000000" fill-rule="nonzero" fill-opacity="1" /><path clip-path="url(#clip140)" d="M1745.22 1451.02 L1767.44 1451.02 L1767.44 1453.01 L1754.89 1485.58 L1750.01 1485.58 L1761.81 1454.96 L1745.22 1454.96 L1745.22 1451.02 Z" fill="#000000" fill-rule="nonzero" fill-opacity="1" /><path clip-path="url(#clip140)" d="M1776.61 1451.02 L1794.96 1451.02 L1794.96 1454.96 L1780.89 1454.96 L1780.89 1463.43 Q1781.91 1463.08 1782.93 1462.92 Q1783.94 1462.73 1784.96 1462.73 Q1790.75 1462.73 1794.13 1465.9 Q1797.51 1469.08 1797.51 1474.49 Q1797.51 1480.07 1794.04 1483.17 Q1790.56 1486.25 1784.25 1486.25 Q1782.07 1486.25 1779.8 1485.88 Q1777.56 1485.51 1775.15 1484.77 L1775.15 1480.07 Q1777.23 1481.2 1779.45 1481.76 Q1781.68 1482.32 1784.15 1482.32 Q1788.16 1482.32 1790.5 1480.21 Q1792.83 1478.1 1792.83 1474.49 Q1792.83 1470.88 1790.5 1468.77 Q1788.16 1466.67 1784.15 1466.67 Q1782.28 1466.67 1780.4 1467.08 Q1778.55 1467.5 1776.61 1468.38 L1776.61 1451.02 Z" fill="#000000" fill-rule="nonzero" fill-opacity="1" /><path clip-path="url(#clip140)" d="M1816.72 1454.1 Q1813.11 1454.1 1811.28 1457.66 Q1809.48 1461.2 1809.48 1468.33 Q1809.48 1475.44 1811.28 1479.01 Q1813.11 1482.55 1816.72 1482.55 Q1820.36 1482.55 1822.16 1479.01 Q1823.99 1475.44 1823.99 1468.33 Q1823.99 1461.2 1822.16 1457.66 Q1820.36 1454.1 1816.72 1454.1 M1816.72 1450.39 Q1822.53 1450.39 1825.59 1455 Q1828.67 1459.58 1828.67 1468.33 Q1828.67 1477.06 1825.59 1481.67 Q1822.53 1486.25 1816.72 1486.25 Q1810.91 1486.25 1807.83 1481.67 Q1804.78 1477.06 1804.78 1468.33 Q1804.78 1459.58 1807.83 1455 Q1810.91 1450.39 1816.72 1450.39 Z" fill="#000000" fill-rule="nonzero" fill-opacity="1" /><path clip-path="url(#clip140)" d="M2236.66 1481.64 L2244.3 1481.64 L2244.3 1455.28 L2235.99 1456.95 L2235.99 1452.69 L2244.25 1451.02 L2248.93 1451.02 L2248.93 1481.64 L2256.57 1481.64 L2256.57 1485.58 L2236.66 1485.58 L2236.66 1481.64 Z" fill="#000000" fill-rule="nonzero" fill-opacity="1" /><path clip-path="url(#clip140)" d="M2276.01 1454.1 Q2272.4 1454.1 2270.57 1457.66 Q2268.77 1461.2 2268.77 1468.33 Q2268.77 1475.44 2270.57 1479.01 Q2272.4 1482.55 2276.01 1482.55 Q2279.64 1482.55 2281.45 1479.01 Q2283.28 1475.44 2283.28 1468.33 Q2283.28 1461.2 2281.45 1457.66 Q2279.64 1454.1 2276.01 1454.1 M2276.01 1450.39 Q2281.82 1450.39 2284.88 1455 Q2287.95 1459.58 2287.95 1468.33 Q2287.95 1477.06 2284.88 1481.67 Q2281.82 1486.25 2276.01 1486.25 Q2270.2 1486.25 2267.12 1481.67 Q2264.07 1477.06 2264.07 1468.33 Q2264.07 1459.58 2267.12 1455 Q2270.2 1450.39 2276.01 1450.39 Z" fill="#000000" fill-rule="nonzero" fill-opacity="1" /><path clip-path="url(#clip140)" d="M2306.17 1454.1 Q2302.56 1454.1 2300.73 1457.66 Q2298.93 1461.2 2298.93 1468.33 Q2298.93 1475.44 2300.73 1479.01 Q2302.56 1482.55 2306.17 1482.55 Q2309.81 1482.55 2311.61 1479.01 Q2313.44 1475.44 2313.44 1468.33 Q2313.44 1461.2 2311.61 1457.66 Q2309.81 1454.1 2306.17 1454.1 M2306.17 1450.39 Q2311.98 1450.39 2315.04 1455 Q2318.12 1459.58 2318.12 1468.33 Q2318.12 1477.06 2315.04 1481.67 Q2311.98 1486.25 2306.17 1486.25 Q2300.36 1486.25 2297.28 1481.67 Q2294.23 1477.06 2294.23 1468.33 Q2294.23 1459.58 2297.28 1455 Q2300.36 1450.39 2306.17 1450.39 Z" fill="#000000" fill-rule="nonzero" fill-opacity="1" /><path clip-path="url(#clip140)" d="M2336.33 1454.1 Q2332.72 1454.1 2330.89 1457.66 Q2329.09 1461.2 2329.09 1468.33 Q2329.09 1475.44 2330.89 1479.01 Q2332.72 1482.55 2336.33 1482.55 Q2339.97 1482.55 2341.77 1479.01 Q2343.6 1475.44 2343.6 1468.33 Q2343.6 1461.2 2341.77 1457.66 Q2339.97 1454.1 2336.33 1454.1 M2336.33 1450.39 Q2342.14 1450.39 2345.2 1455 Q2348.28 1459.58 2348.28 1468.33 Q2348.28 1477.06 2345.2 1481.67 Q2342.14 1486.25 2336.33 1486.25 Q2330.52 1486.25 2327.45 1481.67 Q2324.39 1477.06 2324.39 1468.33 Q2324.39 1459.58 2327.45 1455 Q2330.52 1450.39 2336.33 1450.39 Z" fill="#000000" fill-rule="nonzero" fill-opacity="1" /><path clip-path="url(#clip140)" d="M1176.64 1520.52 L1216.84 1520.52 L1216.84 1525.93 L1199.97 1525.93 L1199.97 1568.04 L1193.51 1568.04 L1193.51 1525.93 L1176.64 1525.93 L1176.64 1520.52 Z" fill="#000000" fill-rule="nonzero" fill-opacity="1" /><path clip-path="url(#clip140)" d="M1242.2 1548.76 L1242.2 1551.62 L1215.28 1551.62 Q1215.66 1557.67 1218.91 1560.85 Q1222.18 1564 1228.01 1564 Q1231.38 1564 1234.53 1563.17 Q1237.72 1562.35 1240.84 1560.69 L1240.84 1566.23 Q1237.68 1567.57 1234.37 1568.27 Q1231.06 1568.97 1227.66 1568.97 Q1219.13 1568.97 1214.13 1564 Q1209.17 1559.04 1209.17 1550.57 Q1209.17 1541.82 1213.88 1536.69 Q1218.62 1531.54 1226.64 1531.54 Q1233.83 1531.54 1238 1536.18 Q1242.2 1540.8 1242.2 1548.76 M1236.35 1547.04 Q1236.28 1542.23 1233.64 1539.37 Q1231.03 1536.5 1226.7 1536.5 Q1221.8 1536.5 1218.84 1539.27 Q1215.91 1542.04 1215.47 1547.07 L1236.35 1547.04 Z" fill="#000000" fill-rule="nonzero" fill-opacity="1" /><path clip-path="url(#clip140)" d="M1279.57 1539.24 Q1281.77 1535.29 1284.82 1533.41 Q1287.88 1531.54 1292.02 1531.54 Q1297.59 1531.54 1300.61 1535.45 Q1303.63 1539.33 1303.63 1546.53 L1303.63 1568.04 L1297.74 1568.04 L1297.74 1546.72 Q1297.74 1541.59 1295.93 1539.11 Q1294.12 1536.63 1290.39 1536.63 Q1285.84 1536.63 1283.2 1539.65 Q1280.56 1542.68 1280.56 1547.9 L1280.56 1568.04 L1274.67 1568.04 L1274.67 1546.72 Q1274.67 1541.56 1272.85 1539.11 Q1271.04 1536.63 1267.25 1536.63 Q1262.77 1536.63 1260.12 1539.68 Q1257.48 1542.71 1257.48 1547.9 L1257.48 1568.04 L1251.59 1568.04 L1251.59 1532.4 L1257.48 1532.4 L1257.48 1537.93 Q1259.49 1534.66 1262.29 1533.1 Q1265.09 1531.54 1268.94 1531.54 Q1272.82 1531.54 1275.53 1533.51 Q1278.27 1535.48 1279.57 1539.24 Z" fill="#000000" fill-rule="nonzero" fill-opacity="1" /><path clip-path="url(#clip140)" d="M1320.98 1562.7 L1320.98 1581.6 L1315.09 1581.6 L1315.09 1532.4 L1320.98 1532.4 L1320.98 1537.81 Q1322.83 1534.62 1325.63 1533.1 Q1328.46 1531.54 1332.37 1531.54 Q1338.87 1531.54 1342.91 1536.69 Q1346.98 1541.85 1346.98 1550.25 Q1346.98 1558.65 1342.91 1563.81 Q1338.87 1568.97 1332.37 1568.97 Q1328.46 1568.97 1325.63 1567.44 Q1322.83 1565.88 1320.98 1562.7 M1340.9 1550.25 Q1340.9 1543.79 1338.23 1540.13 Q1335.59 1536.44 1330.94 1536.44 Q1326.29 1536.44 1323.62 1540.13 Q1320.98 1543.79 1320.98 1550.25 Q1320.98 1556.71 1323.62 1560.4 Q1326.29 1564.07 1330.94 1564.07 Q1335.59 1564.07 1338.23 1560.4 Q1340.9 1556.71 1340.9 1550.25 Z" fill="#000000" fill-rule="nonzero" fill-opacity="1" /><path clip-path="url(#clip140)" d="M1370.5 1536.5 Q1365.79 1536.5 1363.06 1540.19 Q1360.32 1543.85 1360.32 1550.25 Q1360.32 1556.65 1363.03 1560.34 Q1365.76 1564 1370.5 1564 Q1375.18 1564 1377.92 1560.31 Q1380.66 1556.62 1380.66 1550.25 Q1380.66 1543.92 1377.92 1540.23 Q1375.18 1536.5 1370.5 1536.5 M1370.5 1531.54 Q1378.14 1531.54 1382.5 1536.5 Q1386.86 1541.47 1386.86 1550.25 Q1386.86 1559 1382.5 1564 Q1378.14 1568.97 1370.5 1568.97 Q1362.83 1568.97 1358.47 1564 Q1354.14 1559 1354.14 1550.25 Q1354.14 1541.47 1358.47 1536.5 Q1362.83 1531.54 1370.5 1531.54 Z" fill="#000000" fill-rule="nonzero" fill-opacity="1" /><polyline clip-path="url(#clip142)" style="stroke:#000000; stroke-linecap:round; stroke-linejoin:round; stroke-width:2; stroke-opacity:0.1; fill:none" points="210.746,1151.61 2352.76,1151.61 "/>
<polyline clip-path="url(#clip142)" style="stroke:#000000; stroke-linecap:round; stroke-linejoin:round; stroke-width:2; stroke-opacity:0.1; fill:none" points="210.746,874.207 2352.76,874.207 "/>
<polyline clip-path="url(#clip142)" style="stroke:#000000; stroke-linecap:round; stroke-linejoin:round; stroke-width:2; stroke-opacity:0.1; fill:none" points="210.746,596.808 2352.76,596.808 "/>
<polyline clip-path="url(#clip142)" style="stroke:#000000; stroke-linecap:round; stroke-linejoin:round; stroke-width:2; stroke-opacity:0.1; fill:none" points="210.746,319.41 2352.76,319.41 "/>
<polyline clip-path="url(#clip140)" style="stroke:#000000; stroke-linecap:round; stroke-linejoin:round; stroke-width:4; stroke-opacity:1; fill:none" points="210.746,1423.18 210.746,47.2441 "/>
<polyline clip-path="url(#clip140)" style="stroke:#000000; stroke-linecap:round; stroke-linejoin:round; stroke-width:4; stroke-opacity:1; fill:none" points="210.746,1151.61 229.644,1151.61 "/>
<polyline clip-path="url(#clip140)" style="stroke:#000000; stroke-linecap:round; stroke-linejoin:round; stroke-width:4; stroke-opacity:1; fill:none" points="210.746,874.207 229.644,874.207 "/>
<polyline clip-path="url(#clip140)" style="stroke:#000000; stroke-linecap:round; stroke-linejoin:round; stroke-width:4; stroke-opacity:1; fill:none" points="210.746,596.808 229.644,596.808 "/>
<polyline clip-path="url(#clip140)" style="stroke:#000000; stroke-linecap:round; stroke-linejoin:round; stroke-width:4; stroke-opacity:1; fill:none" points="210.746,319.41 229.644,319.41 "/>
<path clip-path="url(#clip140)" d="M114.631 1152.06 L144.306 1152.06 L144.306 1155.99 L114.631 1155.99 L114.631 1152.06 Z" fill="#000000" fill-rule="nonzero" fill-opacity="1" /><path clip-path="url(#clip140)" d="M158.427 1164.95 L174.746 1164.95 L174.746 1168.89 L152.802 1168.89 L152.802 1164.95 Q155.464 1162.2 160.047 1157.57 Q164.653 1152.91 165.834 1151.57 Q168.079 1149.05 168.959 1147.31 Q169.862 1145.55 169.862 1143.86 Q169.862 1141.11 167.917 1139.37 Q165.996 1137.64 162.894 1137.64 Q160.695 1137.64 158.241 1138.4 Q155.811 1139.16 153.033 1140.71 L153.033 1135.99 Q155.857 1134.86 158.311 1134.28 Q160.765 1133.7 162.802 1133.7 Q168.172 1133.7 171.366 1136.39 Q174.561 1139.07 174.561 1143.56 Q174.561 1145.69 173.751 1147.61 Q172.964 1149.51 170.857 1152.1 Q170.278 1152.77 167.177 1155.99 Q164.075 1159.19 158.427 1164.95 Z" fill="#000000" fill-rule="nonzero" fill-opacity="1" /><path clip-path="url(#clip140)" d="M114.26 874.658 L143.936 874.658 L143.936 878.593 L114.26 878.593 L114.26 874.658 Z" fill="#000000" fill-rule="nonzero" fill-opacity="1" /><path clip-path="url(#clip140)" d="M154.839 887.552 L162.477 887.552 L162.477 861.186 L154.167 862.853 L154.167 858.594 L162.431 856.927 L167.107 856.927 L167.107 887.552 L174.746 887.552 L174.746 891.487 L154.839 891.487 L154.839 887.552 Z" fill="#000000" fill-rule="nonzero" fill-opacity="1" /><path clip-path="url(#clip140)" d="M162.802 582.607 Q159.19 582.607 157.362 586.172 Q155.556 589.713 155.556 596.843 Q155.556 603.949 157.362 607.514 Q159.19 611.056 162.802 611.056 Q166.436 611.056 168.241 607.514 Q170.07 603.949 170.07 596.843 Q170.07 589.713 168.241 586.172 Q166.436 582.607 162.802 582.607 M162.802 578.903 Q168.612 578.903 171.667 583.51 Q174.746 588.093 174.746 596.843 Q174.746 605.57 171.667 610.176 Q168.612 614.76 162.802 614.76 Q156.991 614.76 153.913 610.176 Q150.857 605.57 150.857 596.843 Q150.857 588.093 153.913 583.51 Q156.991 578.903 162.802 578.903 Z" fill="#000000" fill-rule="nonzero" fill-opacity="1" /><path clip-path="url(#clip140)" d="M154.839 332.755 L162.477 332.755 L162.477 306.389 L154.167 308.056 L154.167 303.796 L162.431 302.13 L167.107 302.13 L167.107 332.755 L174.746 332.755 L174.746 336.69 L154.839 336.69 L154.839 332.755 Z" fill="#000000" fill-rule="nonzero" fill-opacity="1" /><path clip-path="url(#clip140)" d="M21.7677 846.103 L39.6235 846.103 L39.6235 838.018 Q39.6235 833.53 37.3 831.08 Q34.9765 828.629 30.6797 828.629 Q26.4147 828.629 24.0912 831.08 Q21.7677 833.53 21.7677 838.018 L21.7677 846.103 M16.4842 852.532 L16.4842 838.018 Q16.4842 830.029 20.1126 825.955 Q23.7092 821.849 30.6797 821.849 Q37.7138 821.849 41.3104 825.955 Q44.907 830.029 44.907 838.018 L44.907 846.103 L64.0042 846.103 L64.0042 852.532 L16.4842 852.532 Z" fill="#000000" fill-rule="nonzero" fill-opacity="1" /><path clip-path="url(#clip140)" d="M32.4621 801.988 Q32.4621 806.699 36.1542 809.436 Q39.8145 812.173 46.212 812.173 Q52.6095 812.173 56.3017 809.468 Q59.9619 806.731 59.9619 801.988 Q59.9619 797.309 56.2698 794.572 Q52.5777 791.835 46.212 791.835 Q39.8781 791.835 36.186 794.572 Q32.4621 797.309 32.4621 801.988 M27.4968 801.988 Q27.4968 794.349 32.4621 789.989 Q37.4273 785.628 46.212 785.628 Q54.9649 785.628 59.9619 789.989 Q64.9272 794.349 64.9272 801.988 Q64.9272 809.659 59.9619 814.019 Q54.9649 818.348 46.212 818.348 Q37.4273 818.348 32.4621 814.019 Q27.4968 809.659 27.4968 801.988 Z" fill="#000000" fill-rule="nonzero" fill-opacity="1" /><path clip-path="url(#clip140)" d="M29.4065 753.195 L34.9447 753.195 Q33.6716 755.678 33.035 758.351 Q32.3984 761.025 32.3984 763.889 Q32.3984 768.25 33.7352 770.446 Q35.072 772.61 37.7456 772.61 Q39.7826 772.61 40.9603 771.051 Q42.1061 769.491 43.1565 764.781 L43.6021 762.775 Q44.9389 756.537 47.3897 753.927 Q49.8086 751.285 54.1691 751.285 Q59.1344 751.285 62.0308 755.232 Q64.9272 759.147 64.9272 766.022 Q64.9272 768.887 64.3543 772.006 Q63.8132 775.093 62.6992 778.531 L56.6518 778.531 Q58.3387 775.284 59.198 772.133 Q60.0256 768.982 60.0256 765.895 Q60.0256 761.757 58.6251 759.529 Q57.1929 757.301 54.6147 757.301 Q52.2276 757.301 50.9545 758.924 Q49.6813 760.516 48.5037 765.958 L48.0262 767.995 Q46.8804 773.438 44.5251 775.857 Q42.138 778.276 38.0002 778.276 Q32.9713 778.276 30.2341 774.711 Q27.4968 771.146 27.4968 764.59 Q27.4968 761.343 27.9743 758.479 Q28.4517 755.614 29.4065 753.195 Z" fill="#000000" fill-rule="nonzero" fill-opacity="1" /><path clip-path="url(#clip140)" d="M28.3562 741.96 L28.3562 736.103 L64.0042 736.103 L64.0042 741.96 L28.3562 741.96 M14.479 741.96 L14.479 736.103 L21.895 736.103 L21.895 741.96 L14.479 741.96 Z" fill="#000000" fill-rule="nonzero" fill-opacity="1" /><path clip-path="url(#clip140)" d="M29.7248 698.195 L35.1993 698.195 Q33.8307 700.678 33.1623 703.192 Q32.4621 705.675 32.4621 708.221 Q32.4621 713.919 36.0905 717.07 Q39.6872 720.221 46.212 720.221 Q52.7369 720.221 56.3653 717.07 Q59.9619 713.919 59.9619 708.221 Q59.9619 705.675 59.2935 703.192 Q58.5933 700.678 57.2247 698.195 L62.6355 698.195 Q63.7814 700.646 64.3543 703.288 Q64.9272 705.898 64.9272 708.858 Q64.9272 716.911 59.8664 721.653 Q54.8057 726.395 46.212 726.395 Q37.491 726.395 32.4939 721.621 Q27.4968 716.815 27.4968 708.476 Q27.4968 705.771 28.0697 703.192 Q28.6108 700.614 29.7248 698.195 M64.0042 706.471 Q65.9775 704.72 67.6326 703.861 Q69.3195 703.001 70.8473 703.001 Q73.68 703.001 75.1123 704.911 Q76.5764 706.821 76.5764 710.577 Q76.5764 712.041 76.3855 713.441 Q76.1945 714.81 75.8125 716.179 L71.643 716.179 Q72.1841 715.096 72.4069 713.919 Q72.6615 712.741 72.6615 711.245 Q72.6615 709.367 71.8976 708.412 Q71.1337 707.457 69.6696 707.457 Q68.7148 707.457 67.3143 708.158 Q65.9457 708.826 64.0042 710.258 L64.0042 706.471 Z" fill="#000000" fill-rule="nonzero" fill-opacity="1" /><path clip-path="url(#clip140)" d="M46.0847 671.81 Q46.0847 678.907 47.7079 681.645 Q49.3312 684.382 53.2461 684.382 Q56.3653 684.382 58.2114 682.345 Q60.0256 680.276 60.0256 676.743 Q60.0256 671.873 56.5881 668.945 Q53.1188 665.985 47.3897 665.985 L46.0847 665.985 L46.0847 671.81 M43.6657 660.128 L64.0042 660.128 L64.0042 665.985 L58.5933 665.985 Q61.8398 667.99 63.3994 670.982 Q64.9272 673.974 64.9272 678.303 Q64.9272 683.777 61.8716 687.024 Q58.7843 690.238 53.6281 690.238 Q47.6125 690.238 44.5569 686.228 Q41.5014 682.186 41.5014 674.197 L41.5014 665.985 L40.9285 665.985 Q36.8862 665.985 34.6901 668.659 Q32.4621 671.3 32.4621 676.106 Q32.4621 679.162 33.1941 682.058 Q33.9262 684.955 35.3903 687.628 L29.9795 687.628 Q28.7381 684.414 28.1334 681.39 Q27.4968 678.366 27.4968 675.502 Q27.4968 667.767 31.5072 663.948 Q35.5176 660.128 43.6657 660.128 M20.3991 675.374 L18.6485 677.189 Q18.0119 677.889 17.7255 678.43 Q17.4072 678.939 17.4072 679.353 Q17.4072 680.562 18.5848 681.135 Q19.7307 681.708 22.3406 681.772 L22.3406 685.75 Q18.0438 685.687 15.7203 684.064 Q13.365 682.44 13.365 679.544 Q13.365 678.334 13.8106 677.316 Q14.2562 676.297 15.3065 675.12 L17.0571 673.305 Q17.6936 672.605 18.0119 672.096 Q18.2984 671.555 18.2984 671.141 Q18.2984 669.932 17.1526 669.359 Q15.9749 668.786 13.365 668.722 L13.365 664.744 Q17.6618 664.807 20.0171 666.431 Q22.3406 668.054 22.3406 670.95 Q22.3406 672.16 21.895 673.178 Q21.4494 674.197 20.3991 675.374 Z" fill="#000000" fill-rule="nonzero" fill-opacity="1" /><path clip-path="url(#clip140)" d="M32.4621 634.252 Q32.4621 638.962 36.1542 641.7 Q39.8145 644.437 46.212 644.437 Q52.6095 644.437 56.3017 641.732 Q59.9619 638.994 59.9619 634.252 Q59.9619 629.573 56.2698 626.836 Q52.5777 624.099 46.212 624.099 Q39.8781 624.099 36.186 626.836 Q32.4621 629.573 32.4621 634.252 M27.4968 634.252 Q27.4968 626.613 32.4621 622.253 Q37.4273 617.892 46.212 617.892 Q54.9649 617.892 59.9619 622.253 Q64.9272 626.613 64.9272 634.252 Q64.9272 641.923 59.9619 646.283 Q54.9649 650.612 46.212 650.612 Q37.4273 650.612 32.4621 646.283 Q27.4968 641.923 27.4968 634.252 Z" fill="#000000" fill-rule="nonzero" fill-opacity="1" /><polyline clip-path="url(#clip142)" style="stroke:#000000; stroke-linecap:round; stroke-linejoin:round; stroke-width:12; stroke-opacity:1; fill:none" points="271.369,596.808 273.39,639.226 275.41,645.275 277.431,680.017 279.452,631.502 281.473,585.905 283.493,634.679 285.514,561.137 287.535,524.813 289.556,476.332 291.577,527.628 293.597,483.447 295.618,491.664 297.639,490.456 299.66,531.251 301.68,490.19 303.701,504.59 305.722,455.862 307.743,428.417 309.763,434.142 311.784,399.251 313.805,445.586 315.826,443.545 317.846,392.776 319.867,443.76 321.888,431.564 323.909,425.46 325.929,437.632 327.95,360.928 329.971,321.265 331.992,341.73 334.013,277.753 336.033,407.789 338.054,384.762 340.075,442.934 342.096,474.562 344.116,543.136 346.137,580.891 348.158,661.983 350.179,683.323 352.199,673.701 354.22,642.66 356.241,647.02 358.262,636.077 360.282,601.541 362.303,620.598 364.324,637.872 366.345,639.474 368.366,613.913 370.386,599.249 372.407,583.614 374.428,576.472 376.449,621.05 378.469,626.611 380.49,534.01 382.511,499.893 384.532,500.143 386.552,487.175 388.573,490.825 390.594,492.124 392.615,477.463 394.635,451.164 396.656,327.043 398.677,340.958 400.698,380.76 402.719,361.721 404.739,308.737 406.76,290.426 408.781,261.88 410.802,306.531 412.822,310.864 414.843,294.526 416.864,314.066 418.885,339.519 420.905,386.515 422.926,389.39 424.947,360.369 426.968,397.204 428.988,379.802 431.009,368.872 433.03,398.614 435.051,421.195 437.072,378.049 439.092,359.553 441.113,354.381 443.134,337.718 445.155,347.535 447.175,341.875 449.196,406.901 451.217,366.527 453.238,397.831 455.258,297.178 457.279,265.827 459.3,359.115 461.321,328.619 463.341,325.289 465.362,321.986 467.383,298.095 469.404,358.047 471.425,376.73 473.445,379.471 475.466,436.818 477.487,465.105 479.508,481.267 481.528,463.856 483.549,465.211 485.57,488.795 487.591,549.942 489.611,617.946 491.632,652.454 493.653,717.519 495.674,675.897 497.694,655.203 499.715,663.607 501.736,613.855 503.757,639.04 505.778,697.349 507.798,692.595 509.819,697.147 511.84,659.979 513.861,638.409 515.881,615.293 517.902,620.695 519.923,637.017 521.944,706.782 523.964,685.317 525.985,645.202 528.006,666.451 530.027,625.492 532.047,613.686 534.068,644.141 536.089,642.74 538.11,721.123 540.13,700.629 542.151,738.558 544.172,682.491 546.193,657.146 548.214,705.798 550.234,686.352 552.255,685.562 554.276,649.07 556.297,619.592 558.317,591.28 560.338,568.6 562.359,655.048 564.38,698.075 566.4,726.016 568.421,800.621 570.442,790.118 572.463,785.885 574.483,780.566 576.504,733.092 578.525,789.17 580.546,799.135 582.567,860.951 584.587,824.052 586.608,854.536 588.629,841.034 590.65,812.965 592.67,831.231 594.691,803.516 596.712,863.858 598.733,916.93 600.753,856.783 602.774,868.463 604.795,895.216 606.816,895.24 608.836,861.614 610.857,846.626 612.878,822.641 614.899,822.023 616.92,779.217 618.94,840.974 620.961,812.954 622.982,794.012 625.003,770.665 627.023,808.092 629.044,785.346 631.065,792.21 633.086,710.133 635.106,710.952 637.127,705.748 639.148,631.311 641.169,632.221 643.189,598.112 645.21,662.726 647.231,724.816 649.252,745.146 651.273,775.728 653.293,715.971 655.314,737.297 657.335,723.311 659.356,684.779 661.376,713.099 663.397,636.062 665.418,653.567 667.439,616.599 669.459,564.485 671.48,561.989 673.501,521.657 675.522,520.046 677.542,480.618 679.563,522.599 681.584,573.146 683.605,654.743 685.626,653.919 687.646,721.893 689.667,682.284 691.688,749.616 693.709,768.498 695.729,746.293 697.75,666.003 699.771,682.148 701.792,699.221 703.812,747.39 705.833,712.293 707.854,699.101 709.875,677.935 711.895,711.19 713.916,673.072 715.937,696.313 717.958,742.293 719.979,743.547 721.999,763.257 724.02,698.284 726.041,684.372 728.062,688.258 730.082,695.122 732.103,658.17 734.124,738.619 736.145,727.881 738.165,656.834 740.186,768.385 742.207,728.16 744.228,775.421 746.248,783.147 748.269,824.392 750.29,857.898 752.311,865.64 754.331,835.126 756.352,786.112 758.373,751.893 760.394,714.939 762.415,737.106 764.435,746.732 766.456,719.275 768.477,697.106 770.498,687.373 772.518,719.904 774.539,737.136 776.56,747.597 778.581,736.346 780.601,764.397 782.622,807.016 784.643,761.355 786.664,779.365 788.684,758.721 790.705,701.857 792.726,690.957 794.747,705.038 796.768,722.249 798.788,689.353 800.809,731.256 802.83,753.487 804.851,731.955 806.871,795.806 808.892,716.572 810.913,705.951 812.934,694.61 814.954,651.74 816.975,673.933 818.996,722.143 821.017,632.509 823.037,604.945 825.058,601.502 827.079,621.793 829.1,651.199 831.121,733.958 833.141,706.125 835.162,742.588 837.183,694.14 839.204,658.484 841.224,598.774 843.245,581.311 845.266,597.677 847.287,599.612 849.307,618.068 851.328,614.744 853.349,557.442 855.37,551.182 857.39,578.088 859.411,612.856 861.432,641.075 863.453,593.204 865.474,584.922 867.494,632.962 869.515,672.18 871.536,679.418 873.557,657.62 875.577,640.954 877.598,640.185 879.619,608.081 881.64,605.743 883.66,598.547 885.681,593.089 887.702,575.622 889.723,635.847 891.743,673.502 893.764,635.473 895.785,576.03 897.806,536.255 899.827,502.51 901.847,502.848 903.868,444.656 905.889,475.489 907.91,545.97 909.93,509.75 911.951,533.203 913.972,542.256 915.993,572.875 918.013,585.292 920.034,628.697 922.055,622.126 924.076,646.154 926.096,635.119 928.117,706.107 930.138,672.331 932.159,723.916 934.179,720.962 936.2,740.443 938.221,770.259 940.242,794.687 942.263,806.831 944.283,796.358 946.304,745.834 948.325,666.579 950.346,629.566 952.366,673.22 954.387,688.902 956.408,690.767 958.429,685.147 960.449,692.29 962.47,661.766 964.491,633.242 966.512,646.694 968.532,632.284 970.553,585.755 972.574,689.343 974.595,702.208 976.616,710.264 978.636,677.041 980.657,703.126 982.678,674.916 984.699,705.262 986.719,696.267 988.74,755.043 990.761,617.411 992.782,652.839 994.802,630.956 996.823,601.122 998.844,562.905 1000.86,572.409 1002.89,591.597 1004.91,621.465 1006.93,634.646 1008.95,628.259 1010.97,596.423 1012.99,571.426 1015.01,528.187 1017.03,554.822 1019.05,541.507 1021.07,542.294 1023.09,517.224 1025.11,535.17 1027.13,488.763 1029.16,532.005 1031.18,457.792 1033.2,490.622 1035.22,508.958 1037.24,520.214 1039.26,519.083 1041.28,513.132 1043.3,520.119 1045.32,518.855 1047.34,575.819 1049.36,602.46 1051.38,648.305 1053.4,583.515 1055.43,583.32 1057.45,550.405 1059.47,571.978 1061.49,624.77 1063.51,598.076 1065.53,631.165 1067.55,579.903 1069.57,641.357 1071.59,613.553 1073.61,655.756 1075.63,619.881 1077.65,609.586 1079.67,637.876 1081.7,624.806 1083.72,565.731 1085.74,493.513 1087.76,546.15 1089.78,550.166 1091.8,523.166 1093.82,540.004 1095.84,562.669 1097.86,592.234 1099.88,646.996 1101.9,614.015 1103.92,658.462 1105.94,664 1107.97,675.19 1109.99,646.814 1112.01,675.663 1114.03,663.408 1116.05,687.761 1118.07,689.139 1120.09,660.147 1122.11,638.864 1124.13,653.849 1126.15,666.816 1128.17,674.518 1130.19,708.604 1132.21,681.005 1134.24,680.076 1136.26,710.514 1138.28,709.841 1140.3,718.145 1142.32,725.587 1144.34,736.135 1146.36,667.929 1148.38,651.321 1150.4,703.521 1152.42,698.447 1154.44,613.704 1156.46,571.945 1158.48,504.296 1160.51,596.941 1162.53,549.683 1164.55,542.036 1166.57,589.562 1168.59,564.129 1170.61,540.962 1172.63,477.74 1174.65,514.073 1176.67,489.556 1178.69,494.158 1180.71,442.012 1182.73,412.556 1184.75,407.375 1186.78,333.171 1188.8,283.012 1190.82,248.222 1192.84,277.102 1194.86,278.348 1196.88,299.694 1198.9,312.979 1200.92,341.182 1202.94,298.031 1204.96,281.075 1206.98,331.209 1209,309.106 1211.02,258.499 1213.04,191.268 1215.07,154.874 1217.09,97.8731 1219.11,171.084 1221.13,169.438 1223.15,173.038 1225.17,187.628 1227.19,203.821 1229.21,177.244 1231.23,236.185 1233.25,185.451 1235.27,179.556 1237.29,163.357 1239.31,155.623 1241.34,203.781 1243.36,242.635 1245.38,284.712 1247.4,184.807 1249.42,152.622 1251.44,98.0651 1253.46,123.934 1255.48,132.546 1257.5,140.062 1259.52,147.734 1261.54,92.5602 1263.56,171.116 1265.58,182.255 1267.61,108.578 1269.63,86.1857 1271.65,98.7538 1273.67,156.65 1275.69,230.312 1277.71,208.49 1279.73,151.247 1281.75,235.599 1283.77,177.926 1285.79,133.275 1287.81,218.963 1289.83,276.639 1291.85,307.896 1293.88,259.29 1295.9,255.891 1297.92,239.814 1299.94,267.034 1301.96,215.679 1303.98,197.546 1306,182.024 1308.02,178.86 1310.04,219.161 1312.06,264.147 1314.08,285.204 1316.1,258.972 1318.12,183.482 1320.15,212.46 1322.17,181.531 1324.19,198.848 1326.21,233.699 1328.23,247.106 1330.25,313.17 1332.27,322.922 1334.29,345.365 1336.31,359.06 1338.33,298.885 1340.35,325.215 1342.37,333.568 1344.39,336.572 1346.42,368.928 1348.44,309.157 1350.46,318.664 1352.48,309.434 1354.5,298.563 1356.52,316.481 1358.54,334.788 1360.56,401.881 1362.58,421.801 1364.6,423.878 1366.62,422.483 1368.64,478.37 1370.66,518.947 1372.69,493.511 1374.71,520.737 1376.73,534 1378.75,538.067 1380.77,542.671 1382.79,522.231 1384.81,493.998 1386.83,463.074 1388.85,546.467 1390.87,584.247 1392.89,581.73 1394.91,515.422 1396.93,428.608 1398.96,489.408 1400.98,550.87 1403,605.645 1405.02,637.353 1407.04,581.699 1409.06,624.153 1411.08,623.518 1413.1,731.341 1415.12,745.407 1417.14,731.555 1419.16,792.562 1421.18,800.338 1423.2,779.862 1425.23,758.9 1427.25,785.914 1429.27,740.028 1431.29,745.256 1433.31,770.916 1435.33,755.094 1437.35,766.255 1439.37,751.042 1441.39,746.88 1443.41,703.748 1445.43,692.049 1447.45,782.044 1449.47,805.333 1451.5,741.071 1453.52,729.074 1455.54,688.634 1457.56,724.379 1459.58,704.941 1461.6,752.796 1463.62,734.625 1465.64,716.775 1467.66,751.213 1469.68,766.15 1471.7,731.6 1473.72,715.311 1475.74,783.397 1477.77,787.039 1479.79,706.986 1481.81,658.07 1483.83,630.455 1485.85,629.179 1487.87,674.528 1489.89,711.366 1491.91,754.608 1493.93,744.909 1495.95,729.624 1497.97,777.709 1499.99,752.557 1502.01,778.65 1504.03,745.698 1506.06,717.556 1508.08,682.534 1510.1,655.111 1512.12,687.737 1514.14,719.915 1516.16,793.766 1518.18,795.364 1520.2,787.926 1522.22,772.062 1524.24,757.589 1526.26,736.874 1528.28,803.746 1530.3,845.794 1532.33,861.903 1534.35,873.74 1536.37,912.031 1538.39,912.918 1540.41,858.322 1542.43,887.144 1544.45,957.155 1546.47,880.18 1548.49,915.131 1550.51,884.75 1552.53,860.867 1554.55,906.9 1556.57,883.318 1558.6,861.895 1560.62,871.32 1562.64,877.377 1564.66,867.53 1566.68,782.545 1568.7,799.925 1570.72,864.766 1572.74,898.962 1574.76,944.476 1576.78,931.57 1578.8,941.327 1580.82,951.182 1582.84,986.633 1584.87,949.404 1586.89,954.265 1588.91,956.228 1590.93,1000.06 1592.95,1034.51 1594.97,1017.61 1596.99,1035.72 1599.01,996.577 1601.03,971.982 1603.05,1075.01 1605.07,1044.74 1607.09,1025.69 1609.11,1076.9 1611.14,1062.96 1613.16,1096.3 1615.18,1063.88 1617.2,1160.41 1619.22,1158.97 1621.24,1106.27 1623.26,1121.1 1625.28,1095.68 1627.3,1042.06 1629.32,1009.01 1631.34,964.824 1633.36,945.544 1635.38,900.495 1637.41,878.7 1639.43,803.687 1641.45,848.745 1643.47,885.864 1645.49,839.915 1647.51,790.891 1649.53,788.869 1651.55,834.814 1653.57,872.433 1655.59,811.935 1657.61,784.608 1659.63,784.997 1661.65,832.8 1663.68,890.518 1665.7,934.174 1667.72,975.086 1669.74,972.191 1671.76,1042.91 1673.78,1005.13 1675.8,1002.6 1677.82,965.986 1679.84,1045.62 1681.86,1018.74 1683.88,1089.51 1685.9,1038.8 1687.92,1032.34 1689.95,1082.49 1691.97,1067.5 1693.99,1132.86 1696.01,1177.04 1698.03,1214.51 1700.05,1235.83 1702.07,1239.83 1704.09,1213.58 1706.11,1220.66 1708.13,1241.91 1710.15,1203.5 1712.17,1277.74 1714.19,1280.46 1716.22,1264.88 1718.24,1259.59 1720.26,1200.16 1722.28,1196.18 1724.3,1212.47 1726.32,1217.2 1728.34,1289.37 1730.36,1275.12 1732.38,1258.34 1734.4,1309.19 1736.42,1347.16 1738.44,1310.52 1740.46,1364.81 1742.49,1371.68 1744.51,1328.21 1746.53,1384.24 1748.55,1334.93 1750.57,1305.44 1752.59,1276.03 1754.61,1218.78 1756.63,1138.76 1758.65,1141.34 1760.67,1120.37 1762.69,1086.03 1764.71,1131.53 1766.73,1116.05 1768.76,1074.8 1770.78,1041.09 1772.8,997.456 1774.82,994.791 1776.84,970.615 1778.86,972.739 1780.88,930.184 1782.9,903.695 1784.92,890.737 1786.94,948.096 1788.96,930.121 1790.98,919.192 1793,900.439 1795.03,883.275 1797.05,887.522 1799.07,897.3 1801.09,899.685 1803.11,927.099 1805.13,875.863 1807.15,988.663 1809.17,967.258 1811.19,977.979 1813.21,1030.74 1815.23,1048.78 1817.25,1075.81 1819.27,1054.85 1821.29,1065.77 1823.32,1098.2 1825.34,1100.96 1827.36,1111.22 1829.38,1106.24 1831.4,1130.8 1833.42,1127.06 1835.44,1141.94 1837.46,1130.67 1839.48,1119.09 1841.5,1054.99 1843.52,1051.23 1845.54,1071.33 1847.56,1053.33 1849.59,1118.99 1851.61,1167.29 1853.63,1170.58 1855.65,1159.96 1857.67,1129.19 1859.69,1004.71 1861.71,1000.74 1863.73,989.971 1865.75,985.756 1867.77,901.708 1869.79,891.129 1871.81,821.518 1873.83,781.684 1875.86,855.536 1877.88,891.555 1879.9,902.08 1881.92,932.14 1883.94,912.267 1885.96,931.232 1887.98,982.508 1890,970.397 1892.02,1029.76 1894.04,1018.84 1896.06,1106.84 1898.08,1081.91 1900.1,1074.2 1902.13,1092.43 1904.15,1131.03 1906.17,1195.75 1908.19,1225.37 1910.21,1279.92 1912.23,1309.17 1914.25,1298.07 1916.27,1284.49 1918.29,1323.48 1920.31,1298.66 1922.33,1281.89 1924.35,1224.91 1926.37,1242.72 1928.4,1230.73 1930.42,1192.79 1932.44,1281.87 1934.46,1269.32 1936.48,1215.76 1938.5,1232.25 1940.52,1219.42 1942.54,1196.09 1944.56,1198.42 1946.58,1226.89 1948.6,1277.76 1950.62,1221.83 1952.64,1234.88 1954.67,1185.53 1956.69,1152.28 1958.71,1112.73 1960.73,1042.65 1962.75,1072.62 1964.77,1050.94 1966.79,1041.98 1968.81,1097.91 1970.83,1108.79 1972.85,1062.41 1974.87,1101.54 1976.89,1084.08 1978.91,1079.04 1980.94,1106.64 1982.96,1067.96 1984.98,992.712 1987,1008.8 1989.02,997.751 1991.04,1039.89 1993.06,1070.45 1995.08,1101.69 1997.1,1092.46 1999.12,1102.94 2001.14,1084.21 2003.16,1114.4 2005.18,1112.41 2007.21,1112.26 2009.23,1078.38 2011.25,1121.16 2013.27,1119.36 2015.29,1109.84 2017.31,1057.83 2019.33,1037.64 2021.35,1016.55 2023.37,1009.61 2025.39,982.771 2027.41,917.168 2029.43,914.514 2031.45,855.455 2033.48,770.492 2035.5,753.34 2037.52,712.575 2039.54,725.298 2041.56,709.305 2043.58,652.415 2045.6,541.366 2047.62,499.08 2049.64,522.977 2051.66,506.602 2053.68,539.59 2055.7,530.689 2057.72,528.061 2059.75,551.853 2061.77,549.749 2063.79,538.653 2065.81,540.165 2067.83,622.036 2069.85,569.101 2071.87,585.064 2073.89,640.227 2075.91,638.414 2077.93,593.971 2079.95,639.947 2081.97,719.715 2083.99,739.636 2086.02,753.985 2088.04,701.788 2090.06,712.499 2092.08,712.792 2094.1,627.273 2096.12,620.446 2098.14,670.814 2100.16,698.795 2102.18,658.695 2104.2,643.585 2106.22,662.681 2108.24,684.884 2110.26,621.785 2112.28,611.776 2114.31,603.116 2116.33,643.511 2118.35,722.39 2120.37,720.573 2122.39,693.584 2124.41,621.52 2126.43,640.534 2128.45,683.856 2130.47,719.347 2132.49,706.818 2134.51,654.203 2136.53,645.153 2138.55,571.174 2140.58,544.005 2142.6,514.341 2144.62,529.371 2146.64,474.317 2148.66,459.114 2150.68,495.664 2152.7,538.536 2154.72,596.068 2156.74,590.493 2158.76,570.669 2160.78,632.616 2162.8,548.662 2164.82,543.475 2166.85,617.837 2168.87,630.258 2170.89,624.253 2172.91,677.062 2174.93,660.543 2176.95,648.271 2178.97,643.714 2180.99,632.191 2183.01,637.883 2185.03,613.689 2187.05,681.331 2189.07,693.899 2191.09,711.256 2193.12,701.501 2195.14,686.313 2197.16,667.633 2199.18,612.581 2201.2,699.066 2203.22,674.32 2205.24,702.616 2207.26,711.84 2209.28,765.82 2211.3,804.419 2213.32,718.898 2215.34,676.766 2217.36,746.254 2219.39,750.405 2221.41,660.786 2223.43,637.869 2225.45,626.188 2227.47,652.115 2229.49,705.952 2231.51,684.773 2233.53,684.289 2235.55,692.38 2237.57,650.923 2239.59,649.587 2241.61,613.086 2243.63,637.316 2245.66,715.701 2247.68,704.293 2249.7,744.892 2251.72,730.791 2253.74,744.228 2255.76,700.891 2257.78,736.442 2259.8,735.466 2261.82,676.387 2263.84,600.697 2265.86,602.233 2267.88,607.892 2269.9,622.827 2271.93,631.636 2273.95,631.471 2275.97,606.9 2277.99,639.799 2280.01,668.224 2282.03,683.83 2284.05,680.153 2286.07,714.169 2288.09,702.646 2290.11,725.313 2292.13,625.352 "/>
<path clip-path="url(#clip140)" d="M1545.14 196.789 L2281.36 196.789 L2281.36 93.1086 L1545.14 93.1086  Z" fill="#ffffff" fill-rule="evenodd" fill-opacity="1"/>
<polyline clip-path="url(#clip140)" style="stroke:#000000; stroke-linecap:round; stroke-linejoin:round; stroke-width:4; stroke-opacity:1; fill:none" points="1545.14,196.789 2281.36,196.789 2281.36,93.1086 1545.14,93.1086 1545.14,196.789 "/>
<polyline clip-path="url(#clip140)" style="stroke:#000000; stroke-linecap:round; stroke-linejoin:round; stroke-width:12; stroke-opacity:1; fill:none" points="1568.94,144.949 1711.74,144.949 "/>
<path clip-path="url(#clip140)" d="M1735.54 127.669 L1742.51 127.669 L1751.33 151.187 L1760.2 127.669 L1767.16 127.669 L1767.16 162.229 L1762.6 162.229 L1762.6 131.882 L1753.69 155.585 L1748.99 155.585 L1740.08 131.882 L1740.08 162.229 L1735.54 162.229 L1735.54 127.669 Z" fill="#000000" fill-rule="nonzero" fill-opacity="1" /><path clip-path="url(#clip140)" d="M1786.31 139.289 Q1782.88 139.289 1780.89 141.974 Q1778.9 144.636 1778.9 149.289 Q1778.9 153.942 1780.87 156.627 Q1782.86 159.289 1786.31 159.289 Q1789.71 159.289 1791.7 156.604 Q1793.69 153.918 1793.69 149.289 Q1793.69 144.682 1791.7 141.997 Q1789.71 139.289 1786.31 139.289 M1786.31 135.678 Q1791.86 135.678 1795.03 139.289 Q1798.21 142.9 1798.21 149.289 Q1798.21 155.655 1795.03 159.289 Q1791.86 162.9 1786.31 162.9 Q1780.73 162.9 1777.56 159.289 Q1774.41 155.655 1774.41 149.289 Q1774.41 142.9 1777.56 139.289 Q1780.73 135.678 1786.31 135.678 Z" fill="#000000" fill-rule="nonzero" fill-opacity="1" /><path clip-path="url(#clip140)" d="M1802.21 136.303 L1806.72 136.303 L1814.83 158.062 L1822.93 136.303 L1827.44 136.303 L1817.72 162.229 L1811.93 162.229 L1802.21 136.303 Z" fill="#000000" fill-rule="nonzero" fill-opacity="1" /><path clip-path="url(#clip140)" d="M1833.32 136.303 L1837.58 136.303 L1837.58 162.229 L1833.32 162.229 L1833.32 136.303 M1833.32 126.21 L1837.58 126.21 L1837.58 131.604 L1833.32 131.604 L1833.32 126.21 Z" fill="#000000" fill-rule="nonzero" fill-opacity="1" /><path clip-path="url(#clip140)" d="M1866.68 141.28 Q1868.28 138.409 1870.5 137.044 Q1872.72 135.678 1875.73 135.678 Q1879.78 135.678 1881.98 138.525 Q1884.18 141.349 1884.18 146.581 L1884.18 162.229 L1879.9 162.229 L1879.9 146.719 Q1879.9 142.993 1878.58 141.187 Q1877.26 139.382 1874.55 139.382 Q1871.24 139.382 1869.32 141.581 Q1867.4 143.78 1867.4 147.576 L1867.4 162.229 L1863.11 162.229 L1863.11 146.719 Q1863.11 142.969 1861.79 141.187 Q1860.47 139.382 1857.72 139.382 Q1854.46 139.382 1852.53 141.604 Q1850.61 143.803 1850.61 147.576 L1850.61 162.229 L1846.33 162.229 L1846.33 136.303 L1850.61 136.303 L1850.61 140.331 Q1852.07 137.946 1854.11 136.812 Q1856.15 135.678 1858.95 135.678 Q1861.77 135.678 1863.74 137.113 Q1865.73 138.548 1866.68 141.28 Z" fill="#000000" fill-rule="nonzero" fill-opacity="1" /><path clip-path="url(#clip140)" d="M1914.85 148.201 L1914.85 150.284 L1895.27 150.284 Q1895.54 154.682 1897.9 156.997 Q1900.29 159.289 1904.52 159.289 Q1906.98 159.289 1909.27 158.687 Q1911.59 158.085 1913.85 156.881 L1913.85 160.909 Q1911.56 161.881 1909.15 162.391 Q1906.75 162.9 1904.27 162.9 Q1898.07 162.9 1894.43 159.289 Q1890.82 155.678 1890.82 149.52 Q1890.82 143.155 1894.25 139.428 Q1897.7 135.678 1903.53 135.678 Q1908.76 135.678 1911.79 139.057 Q1914.85 142.414 1914.85 148.201 M1910.59 146.951 Q1910.54 143.456 1908.62 141.372 Q1906.72 139.289 1903.58 139.289 Q1900.01 139.289 1897.86 141.303 Q1895.73 143.317 1895.4 146.974 L1910.59 146.951 Z" fill="#000000" fill-rule="nonzero" fill-opacity="1" /><path clip-path="url(#clip140)" d="M1943.39 146.581 L1943.39 162.229 L1939.13 162.229 L1939.13 146.719 Q1939.13 143.039 1937.7 141.21 Q1936.26 139.382 1933.39 139.382 Q1929.94 139.382 1927.95 141.581 Q1925.96 143.78 1925.96 147.576 L1925.96 162.229 L1921.68 162.229 L1921.68 136.303 L1925.96 136.303 L1925.96 140.331 Q1927.49 137.993 1929.55 136.835 Q1931.63 135.678 1934.34 135.678 Q1938.81 135.678 1941.1 138.456 Q1943.39 141.21 1943.39 146.581 Z" fill="#000000" fill-rule="nonzero" fill-opacity="1" /><path clip-path="url(#clip140)" d="M1956.1 128.942 L1956.1 136.303 L1964.87 136.303 L1964.87 139.613 L1956.1 139.613 L1956.1 153.687 Q1956.1 156.858 1956.96 157.761 Q1957.83 158.664 1960.5 158.664 L1964.87 158.664 L1964.87 162.229 L1960.5 162.229 Q1955.57 162.229 1953.69 160.4 Q1951.82 158.548 1951.82 153.687 L1951.82 139.613 L1948.69 139.613 L1948.69 136.303 L1951.82 136.303 L1951.82 128.942 L1956.1 128.942 Z" fill="#000000" fill-rule="nonzero" fill-opacity="1" /><path clip-path="url(#clip140)" d="M1980.52 139.289 Q1977.09 139.289 1975.1 141.974 Q1973.11 144.636 1973.11 149.289 Q1973.11 153.942 1975.08 156.627 Q1977.07 159.289 1980.52 159.289 Q1983.92 159.289 1985.91 156.604 Q1987.9 153.918 1987.9 149.289 Q1987.9 144.682 1985.91 141.997 Q1983.92 139.289 1980.52 139.289 M1980.52 135.678 Q1986.08 135.678 1989.25 139.289 Q1992.42 142.9 1992.42 149.289 Q1992.42 155.655 1989.25 159.289 Q1986.08 162.9 1980.52 162.9 Q1974.94 162.9 1971.77 159.289 Q1968.62 155.655 1968.62 149.289 Q1968.62 142.9 1971.77 139.289 Q1974.94 135.678 1980.52 135.678 Z" fill="#000000" fill-rule="nonzero" fill-opacity="1" /><path clip-path="url(#clip140)" d="M2019.41 145.724 L2019.41 158.386 L2026.91 158.386 Q2030.68 158.386 2032.49 156.835 Q2034.32 155.261 2034.32 152.043 Q2034.32 148.803 2032.49 147.275 Q2030.68 145.724 2026.91 145.724 L2019.41 145.724 M2019.41 131.511 L2019.41 141.928 L2026.33 141.928 Q2029.76 141.928 2031.42 140.655 Q2033.11 139.358 2033.11 136.719 Q2033.11 134.104 2031.42 132.807 Q2029.76 131.511 2026.33 131.511 L2019.41 131.511 M2014.73 127.669 L2026.68 127.669 Q2032.02 127.669 2034.92 129.891 Q2037.81 132.113 2037.81 136.21 Q2037.81 139.382 2036.33 141.257 Q2034.85 143.131 2031.98 143.594 Q2035.43 144.335 2037.33 146.696 Q2039.25 149.034 2039.25 152.553 Q2039.25 157.182 2036.1 159.705 Q2032.95 162.229 2027.14 162.229 L2014.73 162.229 L2014.73 127.669 Z" fill="#000000" fill-rule="nonzero" fill-opacity="1" /><path clip-path="url(#clip140)" d="M2062.09 140.284 Q2061.38 139.868 2060.52 139.682 Q2059.69 139.474 2058.67 139.474 Q2055.06 139.474 2053.11 141.835 Q2051.19 144.173 2051.19 148.571 L2051.19 162.229 L2046.91 162.229 L2046.91 136.303 L2051.19 136.303 L2051.19 140.331 Q2052.53 137.969 2054.69 136.835 Q2056.84 135.678 2059.92 135.678 Q2060.36 135.678 2060.89 135.747 Q2061.42 135.794 2062.07 135.909 L2062.09 140.284 Z" fill="#000000" fill-rule="nonzero" fill-opacity="1" /><path clip-path="url(#clip140)" d="M2075.57 139.289 Q2072.14 139.289 2070.15 141.974 Q2068.16 144.636 2068.16 149.289 Q2068.16 153.942 2070.13 156.627 Q2072.12 159.289 2075.57 159.289 Q2078.97 159.289 2080.96 156.604 Q2082.95 153.918 2082.95 149.289 Q2082.95 144.682 2080.96 141.997 Q2078.97 139.289 2075.57 139.289 M2075.57 135.678 Q2081.12 135.678 2084.29 139.289 Q2087.46 142.9 2087.46 149.289 Q2087.46 155.655 2084.29 159.289 Q2081.12 162.9 2075.57 162.9 Q2069.99 162.9 2066.82 159.289 Q2063.67 155.655 2063.67 149.289 Q2063.67 142.9 2066.82 139.289 Q2069.99 135.678 2075.57 135.678 Z" fill="#000000" fill-rule="nonzero" fill-opacity="1" /><path clip-path="url(#clip140)" d="M2092.05 136.303 L2096.31 136.303 L2101.63 156.534 L2106.93 136.303 L2111.95 136.303 L2117.28 156.534 L2122.58 136.303 L2126.84 136.303 L2120.06 162.229 L2115.03 162.229 L2109.45 140.979 L2103.85 162.229 L2098.83 162.229 L2092.05 136.303 Z" fill="#000000" fill-rule="nonzero" fill-opacity="1" /><path clip-path="url(#clip140)" d="M2154.85 146.581 L2154.85 162.229 L2150.59 162.229 L2150.59 146.719 Q2150.59 143.039 2149.15 141.21 Q2147.72 139.382 2144.85 139.382 Q2141.4 139.382 2139.41 141.581 Q2137.42 143.78 2137.42 147.576 L2137.42 162.229 L2133.13 162.229 L2133.13 136.303 L2137.42 136.303 L2137.42 140.331 Q2138.94 137.993 2141.01 136.835 Q2143.09 135.678 2145.8 135.678 Q2150.26 135.678 2152.56 138.456 Q2154.85 141.21 2154.85 146.581 Z" fill="#000000" fill-rule="nonzero" fill-opacity="1" /><path clip-path="url(#clip140)" d="M2163.34 136.303 L2167.6 136.303 L2167.6 162.229 L2163.34 162.229 L2163.34 136.303 M2163.34 126.21 L2167.6 126.21 L2167.6 131.604 L2163.34 131.604 L2163.34 126.21 Z" fill="#000000" fill-rule="nonzero" fill-opacity="1" /><path clip-path="url(#clip140)" d="M2188.3 149.196 Q2183.13 149.196 2181.14 150.377 Q2179.15 151.557 2179.15 154.405 Q2179.15 156.673 2180.63 158.016 Q2182.14 159.335 2184.71 159.335 Q2188.25 159.335 2190.38 156.835 Q2192.53 154.312 2192.53 150.145 L2192.53 149.196 L2188.3 149.196 M2196.79 147.437 L2196.79 162.229 L2192.53 162.229 L2192.53 158.293 Q2191.07 160.655 2188.9 161.789 Q2186.72 162.9 2183.57 162.9 Q2179.59 162.9 2177.23 160.678 Q2174.89 158.432 2174.89 154.682 Q2174.89 150.307 2177.81 148.085 Q2180.75 145.863 2186.56 145.863 L2192.53 145.863 L2192.53 145.446 Q2192.53 142.507 2190.59 140.909 Q2188.67 139.289 2185.17 139.289 Q2182.95 139.289 2180.84 139.821 Q2178.74 140.354 2176.79 141.419 L2176.79 137.483 Q2179.13 136.581 2181.33 136.141 Q2183.53 135.678 2185.61 135.678 Q2191.24 135.678 2194.01 138.594 Q2196.79 141.511 2196.79 147.437 Z" fill="#000000" fill-rule="nonzero" fill-opacity="1" /><path clip-path="url(#clip140)" d="M2227.12 146.581 L2227.12 162.229 L2222.86 162.229 L2222.86 146.719 Q2222.86 143.039 2221.42 141.21 Q2219.99 139.382 2217.12 139.382 Q2213.67 139.382 2211.68 141.581 Q2209.69 143.78 2209.69 147.576 L2209.69 162.229 L2205.4 162.229 L2205.4 136.303 L2209.69 136.303 L2209.69 140.331 Q2211.21 137.993 2213.27 136.835 Q2215.36 135.678 2218.06 135.678 Q2222.53 135.678 2224.82 138.456 Q2227.12 141.21 2227.12 146.581 Z" fill="#000000" fill-rule="nonzero" fill-opacity="1" /><path clip-path="url(#clip140)" d="M2245.66 139.289 Q2242.23 139.289 2240.24 141.974 Q2238.25 144.636 2238.25 149.289 Q2238.25 153.942 2240.22 156.627 Q2242.21 159.289 2245.66 159.289 Q2249.06 159.289 2251.05 156.604 Q2253.04 153.918 2253.04 149.289 Q2253.04 144.682 2251.05 141.997 Q2249.06 139.289 2245.66 139.289 M2245.66 135.678 Q2251.21 135.678 2254.38 139.289 Q2257.56 142.9 2257.56 149.289 Q2257.56 155.655 2254.38 159.289 Q2251.21 162.9 2245.66 162.9 Q2240.08 162.9 2236.91 159.289 Q2233.76 155.655 2233.76 149.289 Q2233.76 142.9 2236.91 139.289 Q2240.08 135.678 2245.66 135.678 Z" fill="#000000" fill-rule="nonzero" fill-opacity="1" /></svg>
